<?xml version="1.0" encoding="UTF-8"?>
<svg id="Layer_1" xmlns="http://www.w3.org/2000/svg" version="1.1" viewBox="0 0 581 113">
  <!-- Generator: Adobe Illustrator 30.1.0, SVG Export Plug-In . SVG Version: 2.1.1 Build 136)  -->
  <defs>
    <style>
      .st0 {
        fill: #fff;
      }
    </style>
  </defs>
  <path class="st0" d="M151.4,66.76c.6,5.6,5.69,15.2,20.48,15.2,12.89,0,19.08-8.2,19.08-16.2,0-7.2-4.9-13.1-14.59-15.1l-6.99-1.5c-2.7-.5-4.49-2-4.49-4.4,0-2.8,2.8-4.9,6.29-4.9,5.59,0,7.69,3.7,8.09,6.6l11.09-2.5c-.6-5.3-5.29-14.2-19.28-14.2-10.59,0-18.38,7.3-18.38,16.1,0,6.9,4.29,12.6,13.79,14.7l6.49,1.5c3.8.8,5.29,2.6,5.29,4.8,0,2.6-2.1,4.9-6.49,4.9-5.79,0-8.69-3.6-8.99-7.5l-11.39,2.5Z"/>
  <path class="st0" d="M233.42,80.46h12.69c-.2-1.7-.5-5.1-.5-8.9V31.25h-13.29v28.61c0,5.7-3.4,9.7-9.29,9.7-6.19,0-8.99-4.4-8.99-9.9v-28.41h-13.29v31.11c0,10.7,6.79,19.4,18.68,19.4,5.19,0,10.89-2,13.59-6.6,0,2,.2,4.3.4,5.3Z"/>
  <path class="st0" d="M273.08,99.47v-23.81c2.4,3.3,7.39,6,14.19,6,13.89,0,23.18-11,23.18-25.91s-8.29-25.61-22.68-25.61c-7.39,0-12.89,3.3-15.08,7.1v-6h-12.89v68.22h13.29ZM297.35,55.86c0,8.8-5.39,13.9-12.19,13.9s-12.29-5.2-12.29-13.9,5.49-13.8,12.29-13.8,12.19,5.1,12.19,13.8Z"/>
  <path class="st0" d="M317.96,67.06c0,7.7,6.39,14.8,16.88,14.8,7.29,0,11.99-3.4,14.48-7.3,0,1.9.2,4.6.5,5.9h12.19c-.3-1.7-.6-5.2-.6-7.8v-24.21c0-9.9-5.79-18.7-21.38-18.7-13.19,0-20.28,8.5-21.08,16.2l11.79,2.5c.4-4.3,3.6-8,9.39-8s8.29,2.9,8.29,6.4c0,1.7-.9,3.1-3.7,3.5l-12.09,1.8c-8.19,1.2-14.69,6.1-14.69,14.9ZM337.64,71.96c-4.3,0-6.39-2.8-6.39-5.7,0-3.8,2.7-5.7,6.1-6.2l11.09-1.7v2.2c0,8.7-5.19,11.4-10.79,11.4Z"/>
  <path class="st0" d="M387.7,80.46v-6c2.6,4.2,7.79,7.2,14.58,7.2,13.99,0,23.18-11.1,23.18-26.01s-8.29-25.71-22.68-25.71c-7.29,0-12.69,3.2-14.89,6.7V8.05h-13.09v72.42h12.89ZM412.18,55.76c0,9-5.39,14-12.19,14s-12.29-5.1-12.29-14,5.59-13.9,12.29-13.9,12.19,4.9,12.19,13.9Z"/>
  <path class="st0" d="M432.99,67.06c0,7.7,6.39,14.8,16.88,14.8,7.29,0,11.99-3.4,14.49-7.3,0,1.9.2,4.6.5,5.9h12.19c-.3-1.7-.6-5.2-.6-7.8v-24.21c0-9.9-5.79-18.7-21.38-18.7-13.19,0-20.28,8.5-21.08,16.2l11.79,2.5c.4-4.3,3.6-8,9.39-8s8.29,2.9,8.29,6.4c0,1.7-.9,3.1-3.7,3.5l-12.09,1.8c-8.19,1.2-14.69,6.1-14.69,14.9ZM452.67,71.96c-4.3,0-6.39-2.8-6.39-5.7,0-3.8,2.7-5.7,6.1-6.2l11.09-1.7v2.2c0,8.7-5.19,11.4-10.79,11.4Z"/>
  <path class="st0" d="M485.64,66.76c.6,5.6,5.69,15.2,20.48,15.2,12.89,0,19.08-8.2,19.08-16.2,0-7.2-4.89-13.1-14.59-15.1l-6.99-1.5c-2.7-.5-4.49-2-4.49-4.4,0-2.8,2.8-4.9,6.29-4.9,5.6,0,7.69,3.7,8.09,6.6l11.09-2.5c-.6-5.3-5.29-14.2-19.28-14.2-10.59,0-18.38,7.3-18.38,16.1,0,6.9,4.29,12.6,13.79,14.7l6.49,1.5c3.8.8,5.29,2.6,5.29,4.8,0,2.6-2.1,4.9-6.49,4.9-5.79,0-8.69-3.6-8.99-7.5l-11.39,2.5Z"/>
  <path class="st0" d="M545.39,50.26c.3-4.5,4.1-9.7,10.99-9.7,7.59,0,10.79,4.8,10.99,9.7h-21.98ZM568.66,63.06c-1.6,4.4-5,7.5-11.19,7.5-6.59,0-12.09-4.7-12.39-11.2h35.17c0-.2.2-2.2.2-4.1,0-15.8-9.09-25.51-24.28-25.51-12.59,0-24.18,10.2-24.18,25.91,0,16.6,11.89,26.31,25.38,26.31,12.09,0,19.88-7.1,22.38-15.6l-11.09-3.3Z"/>
  <path class="st0" d="M99.19,40.06h-44.92l-.23-35.02c-.07-4.6-5.87-6.57-8.73-2.97L2.17,56.42c-5.09,6.41-.53,15.87,7.67,15.87h44.63l.52,35.02c.07,4.6,5.87,6.57,8.73,2.97l43.15-54.35c5.09-6.41.53-15.87-7.67-15.87Z"/>
</svg>