<svg xmlns="http://www.w3.org/2000/svg"
  width="632" height="96" viewBox="0 0 632 96"
  role="img" aria-labelledby="kal-wordmark-title" data-logo="ken-arhin-labs-wordmark">
  <title id="kal-wordmark-title">Ken Arhin Labs wordmark</title>
  <g fill="none" stroke="currentColor" stroke-width="7"
    stroke-linecap="square" stroke-linejoin="miter">
    <path data-letter="K" transform="translate(12 16)" d="M4 8V64 M4 36H14 M14 36L34 8 M14 36L34 64" />
    <path data-letter="E" transform="translate(58 16)" d="M34 8H4V64H34 M4 36H28" />
    <path data-letter="N" transform="translate(104 16)" d="M4 64V8L34 64V8" />
    <path data-letter="A" transform="translate(178 16)" d="M4 64L19 8L34 64 M10 42H28" />
    <path data-letter="R" transform="translate(224 16)" d="M4 64V8H21Q34 8 34 22Q34 36 21 36H4 M21 36L36 64" />
    <path data-letter="H" transform="translate(270 16)" d="M4 8V64 M34 8V64 M4 36H34" />
    <path data-letter="I" transform="translate(316 16)" d="M4 8H34 M19 8V64 M4 64H34" />
    <path data-letter="N" transform="translate(362 16)" d="M4 64V8L34 64V8" />
    <path data-letter="L" transform="translate(436 16)" d="M4 8V64H34" />
    <path data-letter="A" transform="translate(482 16)" d="M4 64L19 8L34 64 M10 42H28" />
    <path data-letter="B" transform="translate(528 16)" d="M4 64V8H20Q34 8 34 21Q34 34 20 34H4 M20 34Q36 34 36 49Q36 64 20 64H4" />
    <path data-letter="S" transform="translate(574 16)" d="M34 10H16Q4 10 4 22Q4 34 16 34H22Q34 34 34 48Q34 62 22 62H4" />
  </g>
</svg>
